<svg xmlns="http://www.w3.org/2000/svg" viewBox="0 0 60.99 60.99"><defs><style>.cls-1{fill:#117a3e;}.cls-2{fill:#fff;}</style></defs><title>Asset 1</title><g id="Layer_2" data-name="Layer 2"><g id="Layer_1-2" data-name="Layer 1"><circle class="cls-1" cx="30.5" cy="30.5" r="30.5"/><path class="cls-2" d="M43.14,17.83a18,18,0,0,0-12.58-5.12A17.68,17.68,0,0,0,15.2,39.19l-2.52,9.14,9.41-2.45A18.67,18.67,0,0,0,30.57,48c15.79,0,23.64-19.1,12.55-30.14Z"/><path class="cls-1" d="M30.6,45h0a14.91,14.91,0,0,1-8-2.36L17,44.07l1.49-5.41-.35-.55a14.66,14.66,0,0,1-2.25-7.81c0-13,16-19.58,25.18-10.35S43.77,45,30.6,45Z"/><path class="cls-2" d="M38.67,34v.11c-.45-.23-2.63-1.29-3-1.44-.91-.33-.65,0-2.4,2-.26.29-.52.31-1,.11a12.19,12.19,0,0,1-3.57-2.2,13.5,13.5,0,0,1-2.46-3.08c-.44-.75.47-.85,1.3-2.42a.82.82,0,0,0,0-.78c-.12-.22-1-2.4-1.37-3.27s-.73-.76-1-.76a2.22,2.22,0,0,0-2,.51c-2.4,2.63-1.79,5.35.26,8.24,4,5.27,6.17,6.24,10.1,7.59a6.09,6.09,0,0,0,2.79.18c.85-.14,2.62-1.07,3-2.12a3.67,3.67,0,0,0,.27-2.11c-.11-.2-.4-.31-.85-.51Z"/></g></g></svg>