<svg xmlns="http://www.w3.org/2000/svg" width="90" height="90" viewBox="0 0 90 90"><g transform="translate(-1815 -939)"><g transform="translate(9869.8 -314)"><circle cx="45" cy="45" r="45" transform="translate(-8054.8 1253)" fill="#4fad3c"/><g transform="translate(-8039.448 1268.552)"><path d="M297.259,428.03l4.228-15.771a29.183,29.183,0,1,1,11.625,11.525ZM313.9,417.873l1,.595a23.7,23.7,0,1,0-8.105-8.032l.612,1-2.36,8.805Z" transform="translate(-297.259 -369.07)" fill="#fff"/><path d="M331.543,395.916c-1.2-.717-2.76-1.516-4.171-.94-1.083.443-1.775,2.14-2.476,3.006a1.038,1.038,0,0,1-1.343.29,18.9,18.9,0,0,1-9.427-8.074,1.158,1.158,0,0,1,.147-1.58,6.358,6.358,0,0,0,1.711-2.78,6.082,6.082,0,0,0-.765-3.291c-.568-1.223-1.2-2.968-2.43-3.661a3.329,3.329,0,0,0-3.614.537,7.342,7.342,0,0,0-2.545,5.816,8.265,8.265,0,0,0,.228,1.845,15.331,15.331,0,0,0,1.77,4.079,32.651,32.651,0,0,0,1.848,2.81,28.511,28.511,0,0,0,8.015,7.441,24.238,24.238,0,0,0,5,2.378c1.958.647,3.7,1.32,5.818.918a7.048,7.048,0,0,0,5.276-3.924,3.4,3.4,0,0,0,.243-2C334.526,397.4,332.658,396.584,331.543,395.916Z" transform="translate(-291.014 -362.746)" fill="#fff" fill-rule="evenodd"/></g></g></g></svg>